<svg width="165" height="34" viewBox="0 0 165 34" fill="none" xmlns="http://www.w3.org/2000/svg">
<path d="M0.027832 19.0082V14.6332L17.5278 6.9272V11.9609L5.5463 16.771L5.70787 16.5099V17.1314L5.5463 16.8704L17.5278 21.6804V26.7141L0.027832 19.0082ZM33.8719 0.352271L25.6688 30.8281H21.1074L29.3105 0.352271H33.8719ZM54.9546 19.0082L37.4546 26.7141V21.6804L49.4361 16.8704L49.2745 17.1314V16.5099L49.4361 16.771L37.4546 11.9609V6.9272L54.9546 14.6332V19.0082Z" fill="white"/>
<path d="M0.027832 19.0082V14.6332L17.5278 6.9272V11.9609L5.5463 16.771L5.70787 16.5099V17.1314L5.5463 16.8704L17.5278 21.6804V26.7141L0.027832 19.0082ZM33.8719 0.352271L25.6688 30.8281H21.1074L29.3105 0.352271H33.8719ZM54.9546 19.0082L37.4546 26.7141V21.6804L49.4361 16.8704L49.2745 17.1314V16.5099L49.4361 16.771L37.4546 11.9609V6.9272L54.9546 14.6332V19.0082Z" fill="black" fill-opacity="0.2"/>
<path d="M59.9954 5.18182H65.6843L71.6929 19.8409H71.9486L77.9571 5.18182H83.646V27H79.1716V12.799H78.9905L73.3441 26.8935H70.2973L64.651 12.7457H64.4699V27H59.9954V5.18182ZM92.0276 27.3089C90.9835 27.3089 90.0531 27.1278 89.2364 26.7656C88.4196 26.3963 87.7733 25.853 87.2975 25.1357C86.8287 24.4112 86.5943 23.5092 86.5943 22.4297C86.5943 21.5206 86.7612 20.7571 87.095 20.1392C87.4288 19.5213 87.8834 19.0241 88.4587 18.6477C89.034 18.2713 89.6874 17.9872 90.4189 17.7955C91.1575 17.6037 91.9317 17.4688 92.7413 17.3906C93.693 17.2912 94.4601 17.1989 95.0425 17.1136C95.6249 17.0213 96.0475 16.8864 96.3102 16.7088C96.573 16.5312 96.7044 16.2685 96.7044 15.9205V15.8565C96.7044 15.1818 96.4913 14.6598 96.0652 14.2905C95.6462 13.9212 95.0496 13.7365 94.2754 13.7365C93.4587 13.7365 92.8088 13.9176 92.3259 14.2798C91.8429 14.6349 91.5233 15.0824 91.3671 15.6222L87.1696 15.2812C87.3827 14.2869 87.8017 13.4276 88.4267 12.7031C89.0517 11.9716 89.8578 11.4105 90.845 11.0199C91.8394 10.6222 92.9899 10.4233 94.2967 10.4233C95.2058 10.4233 96.0759 10.5298 96.9068 10.7429C97.7449 10.956 98.4871 11.2862 99.1334 11.7337C99.7868 12.1811 100.302 12.7564 100.678 13.4595C101.055 14.1555 101.243 14.9901 101.243 15.9631V27H96.9388V24.7308H96.8109C96.5482 25.2422 96.1966 25.6932 95.7563 26.0838C95.3159 26.4673 94.7868 26.7692 94.1689 26.9893C93.551 27.2024 92.8372 27.3089 92.0276 27.3089ZM93.3273 24.1768C93.9949 24.1768 94.5844 24.0455 95.0957 23.7827C95.6071 23.5128 96.0084 23.1506 96.2996 22.696C96.5908 22.2415 96.7364 21.7266 96.7364 21.1513V19.4148C96.5943 19.5071 96.399 19.5923 96.1504 19.6705C95.909 19.7415 95.6355 19.8089 95.3301 19.8729C95.0247 19.9297 94.7193 19.983 94.4139 20.0327C94.1085 20.0753 93.8315 20.1143 93.583 20.1499C93.0503 20.228 92.5851 20.3523 92.1874 20.5227C91.7896 20.6932 91.4807 20.924 91.2605 21.2152C91.0403 21.4993 90.9303 21.8544 90.9303 22.2805C90.9303 22.8984 91.154 23.3707 91.6014 23.6974C92.056 24.017 92.6313 24.1768 93.3273 24.1768ZM106.98 33.1364C106.404 33.1364 105.865 33.0902 105.36 32.9979C104.863 32.9126 104.451 32.8026 104.125 32.6676L105.147 29.2798C105.68 29.4432 106.159 29.532 106.585 29.5462C107.019 29.5604 107.392 29.4609 107.704 29.2479C108.024 29.0348 108.283 28.6726 108.482 28.1612L108.748 27.4688L102.878 10.6364H107.651L111.039 22.6534H111.209L114.629 10.6364H119.433L113.073 28.7685C112.768 29.6491 112.352 30.4162 111.827 31.0696C111.308 31.7301 110.652 32.2379 109.856 32.593C109.061 32.9553 108.102 33.1364 106.98 33.1364ZM125.983 27.3089C124.939 27.3089 124.008 27.1278 123.191 26.7656C122.375 26.3963 121.728 25.853 121.253 25.1357C120.784 24.4112 120.549 23.5092 120.549 22.4297C120.549 21.5206 120.716 20.7571 121.05 20.1392C121.384 19.5213 121.838 19.0241 122.414 18.6477C122.989 18.2713 123.642 17.9872 124.374 17.7955C125.113 17.6037 125.887 17.4688 126.696 17.3906C127.648 17.2912 128.415 17.1989 128.998 17.1136C129.58 17.0213 130.003 16.8864 130.265 16.7088C130.528 16.5312 130.659 16.2685 130.659 15.9205V15.8565C130.659 15.1818 130.446 14.6598 130.02 14.2905C129.601 13.9212 129.005 13.7365 128.231 13.7365C127.414 13.7365 126.764 13.9176 126.281 14.2798C125.798 14.6349 125.478 15.0824 125.322 15.6222L121.125 15.2812C121.338 14.2869 121.757 13.4276 122.382 12.7031C123.007 11.9716 123.813 11.4105 124.8 11.0199C125.794 10.6222 126.945 10.4233 128.252 10.4233C129.161 10.4233 130.031 10.5298 130.862 10.7429C131.7 10.956 132.442 11.2862 133.088 11.7337C133.742 12.1811 134.257 12.7564 134.633 13.4595C135.01 14.1555 135.198 14.9901 135.198 15.9631V27H130.894V24.7308H130.766C130.503 25.2422 130.152 25.6932 129.711 26.0838C129.271 26.4673 128.742 26.7692 128.124 26.9893C127.506 27.2024 126.792 27.3089 125.983 27.3089ZM127.282 24.1768C127.95 24.1768 128.539 24.0455 129.051 23.7827C129.562 23.5128 129.963 23.1506 130.255 22.696C130.546 22.2415 130.691 21.7266 130.691 21.1513V19.4148C130.549 19.5071 130.354 19.5923 130.106 19.6705C129.864 19.7415 129.591 19.8089 129.285 19.8729C128.98 19.9297 128.674 19.983 128.369 20.0327C128.064 20.0753 127.787 20.1143 127.538 20.1499C127.005 20.228 126.54 20.3523 126.142 20.5227C125.745 20.6932 125.436 20.924 125.216 21.2152C124.995 21.4993 124.885 21.8544 124.885 22.2805C124.885 22.8984 125.109 23.3707 125.557 23.6974C126.011 24.017 126.586 24.1768 127.282 24.1768ZM138.719 27V10.6364H143.119V13.4915H143.289C143.587 12.4759 144.088 11.7088 144.791 11.1903C145.494 10.6648 146.304 10.402 147.22 10.402C147.447 10.402 147.693 10.4162 147.955 10.4446C148.218 10.473 148.449 10.5121 148.648 10.5618V14.5888C148.435 14.5249 148.14 14.468 147.764 14.4183C147.387 14.3686 147.043 14.3438 146.73 14.3438C146.063 14.3438 145.466 14.4893 144.94 14.7805C144.422 15.0646 144.01 15.4624 143.705 15.9737C143.406 16.4851 143.257 17.0746 143.257 17.7422V27H138.719ZM155.192 27.3089C154.148 27.3089 153.217 27.1278 152.4 26.7656C151.584 26.3963 150.937 25.853 150.462 25.1357C149.993 24.4112 149.758 23.5092 149.758 22.4297C149.758 21.5206 149.925 20.7571 150.259 20.1392C150.593 19.5213 151.047 19.0241 151.623 18.6477C152.198 18.2713 152.851 17.9872 153.583 17.7955C154.322 17.6037 155.096 17.4688 155.905 17.3906C156.857 17.2912 157.624 17.1989 158.207 17.1136C158.789 17.0213 159.212 16.8864 159.474 16.7088C159.737 16.5312 159.868 16.2685 159.868 15.9205V15.8565C159.868 15.1818 159.655 14.6598 159.229 14.2905C158.81 13.9212 158.214 13.7365 157.439 13.7365C156.623 13.7365 155.973 13.9176 155.49 14.2798C155.007 14.6349 154.687 15.0824 154.531 15.6222L150.334 15.2812C150.547 14.2869 150.966 13.4276 151.591 12.7031C152.216 11.9716 153.022 11.4105 154.009 11.0199C155.003 10.6222 156.154 10.4233 157.461 10.4233C158.37 10.4233 159.24 10.5298 160.071 10.7429C160.909 10.956 161.651 11.2862 162.297 11.7337C162.951 12.1811 163.466 12.7564 163.842 13.4595C164.219 14.1555 164.407 14.9901 164.407 15.9631V27H160.103V24.7308H159.975C159.712 25.2422 159.361 25.6932 158.92 26.0838C158.48 26.4673 157.951 26.7692 157.333 26.9893C156.715 27.2024 156.001 27.3089 155.192 27.3089ZM156.491 24.1768C157.159 24.1768 157.748 24.0455 158.26 23.7827C158.771 23.5128 159.172 23.1506 159.464 22.696C159.755 22.2415 159.9 21.7266 159.9 21.1513V19.4148C159.758 19.5071 159.563 19.5923 159.314 19.6705C159.073 19.7415 158.8 19.8089 158.494 19.8729C158.189 19.9297 157.883 19.983 157.578 20.0327C157.273 20.0753 156.996 20.1143 156.747 20.1499C156.214 20.228 155.749 20.3523 155.351 20.5227C154.954 20.6932 154.645 20.924 154.425 21.2152C154.204 21.4993 154.094 21.8544 154.094 22.2805C154.094 22.8984 154.318 23.3707 154.765 23.6974C155.22 24.017 155.795 24.1768 156.491 24.1768Z" fill="#E9967A"/>
</svg>
