<svg width="70" height="66" viewBox="0 0 70 66" fill="none" xmlns="http://www.w3.org/2000/svg">
<path d="M41.8326 33.5824C40.5255 33.1769 38.6439 33.264 36.1878 33.264H26.32V45.408H36.8726C38.5213 45.408 39.6794 45.2417 40.3463 45.1255C41.5218 44.927 42.5046 44.5426 43.2942 44.079C44.0832 43.6165 44.7322 42.9148 45.2418 42.0299C45.7503 41.1449 46.0051 40.1095 46.0051 38.9516C46.0051 37.5957 45.6366 36.5545 44.8991 35.5534C44.1622 34.5523 43.1402 33.9879 41.8326 33.5824ZM40.4779 28.0299C41.7754 27.6667 42.7538 27.032 43.4118 26.1888C44.0703 25.3451 44.399 24.2716 44.399 22.9976C44.399 21.7906 44.0916 20.7198 43.4773 19.8011C42.863 18.8823 41.9866 18.527 40.8458 18.1875C39.7051 17.849 37.749 17.952 34.977 17.952H26.32V28.512H35.6087C37.8722 28.512 39.4946 28.3114 40.4779 28.0299ZM70 8.778C70 3.9299 65.8319 0 60.69 0H9.31C4.16808 0 0 3.9299 0 8.778V57.222C0 62.0701 4.16808 66 9.31 66H60.69C65.8319 66 70 62.0701 70 57.222V8.778ZM50.1497 43.6894C49.387 45.1535 48.4434 46.2824 47.3206 47.0765C46.1972 47.8706 44.7888 48.5443 43.0959 48.9498C41.4036 49.3559 39.3282 49.632 36.8726 49.632H21.28V13.2H36.6352C39.583 13.2 41.9468 13.5216 43.7276 14.2571C45.509 14.9936 46.9034 16.1035 47.913 17.6336C48.9216 19.1638 49.4262 20.7525 49.4262 22.4231C49.4262 23.9781 48.9782 25.4369 48.0838 26.8097C47.189 28.1836 45.8377 29.2882 44.0311 30.1319C46.3641 30.7771 48.1583 31.8764 49.4127 33.4309C50.6671 34.9858 51.2943 36.8217 51.2943 38.9389C51.2943 40.6428 50.913 42.2257 50.1497 43.6894Z" fill="#A3C4FF" fill-opacity="0.5"/>
</svg>
