<svg width="222" height="100" viewBox="0 0 222 100" fill="none" xmlns="http://www.w3.org/2000/svg">
<rect width="222" height="100" fill="#D9D9D9"/>
<path d="M25.0278 55.0082V50.6332L42.5278 42.9272V47.9609L30.5463 52.771L30.7079 52.5099V53.1314L30.5463 52.8704L42.5278 57.6804V62.7141L25.0278 55.0082ZM58.8719 36.3523L50.6688 66.8281H46.1074L54.3105 36.3523H58.8719ZM79.9546 55.0082L62.4546 62.7141V57.6804L74.4361 52.8704L74.2745 53.1314V52.5099L74.4361 52.771L62.4546 47.9609V42.9272L79.9546 50.6332V55.0082Z" fill="white"/>
<path d="M84.9954 41.1818H90.6843L96.6929 55.8409H96.9486L102.957 41.1818H108.646V63H104.172V48.799H103.99L98.3441 62.8935H95.2973L89.651 48.7457H89.4699V63H84.9954V41.1818ZM117.028 63.3089C115.984 63.3089 115.053 63.1278 114.236 62.7656C113.42 62.3963 112.773 61.853 112.297 61.1357C111.829 60.4112 111.594 59.5092 111.594 58.4297C111.594 57.5206 111.761 56.7571 112.095 56.1392C112.429 55.5213 112.883 55.0241 113.459 54.6477C114.034 54.2713 114.687 53.9872 115.419 53.7955C116.158 53.6037 116.932 53.4688 117.741 53.3906C118.693 53.2912 119.46 53.1989 120.042 53.1136C120.625 53.0213 121.047 52.8864 121.31 52.7088C121.573 52.5312 121.704 52.2685 121.704 51.9205V51.8565C121.704 51.1818 121.491 50.6598 121.065 50.2905C120.646 49.9212 120.05 49.7365 119.275 49.7365C118.459 49.7365 117.809 49.9176 117.326 50.2798C116.843 50.6349 116.523 51.0824 116.367 51.6222L112.17 51.2812C112.383 50.2869 112.802 49.4276 113.427 48.7031C114.052 47.9716 114.858 47.4105 115.845 47.0199C116.839 46.6222 117.99 46.4233 119.297 46.4233C120.206 46.4233 121.076 46.5298 121.907 46.7429C122.745 46.956 123.487 47.2862 124.133 47.7337C124.787 48.1811 125.302 48.7564 125.678 49.4595C126.055 50.1555 126.243 50.9901 126.243 51.9631V63H121.939V60.7308H121.811C121.548 61.2422 121.197 61.6932 120.756 62.0838C120.316 62.4673 119.787 62.7692 119.169 62.9893C118.551 63.2024 117.837 63.3089 117.028 63.3089ZM118.327 60.1768C118.995 60.1768 119.584 60.0455 120.096 59.7827C120.607 59.5128 121.008 59.1506 121.3 58.696C121.591 58.2415 121.736 57.7266 121.736 57.1513V55.4148C121.594 55.5071 121.399 55.5923 121.15 55.6705C120.909 55.7415 120.636 55.8089 120.33 55.8729C120.025 55.9297 119.719 55.983 119.414 56.0327C119.109 56.0753 118.832 56.1143 118.583 56.1499C118.05 56.228 117.585 56.3523 117.187 56.5227C116.79 56.6932 116.481 56.924 116.261 57.2152C116.04 57.4993 115.93 57.8544 115.93 58.2805C115.93 58.8984 116.154 59.3707 116.601 59.6974C117.056 60.017 117.631 60.1768 118.327 60.1768ZM131.98 69.1364C131.404 69.1364 130.865 69.0902 130.36 68.9979C129.863 68.9126 129.451 68.8026 129.125 68.6676L130.147 65.2798C130.68 65.4432 131.159 65.532 131.585 65.5462C132.019 65.5604 132.392 65.4609 132.704 65.2479C133.024 65.0348 133.283 64.6726 133.482 64.1612L133.748 63.4688L127.878 46.6364H132.651L136.039 58.6534H136.209L139.629 46.6364H144.433L138.073 64.7685C137.768 65.6491 137.352 66.4162 136.827 67.0696C136.308 67.7301 135.652 68.2379 134.856 68.593C134.061 68.9553 133.102 69.1364 131.98 69.1364ZM150.983 63.3089C149.939 63.3089 149.008 63.1278 148.191 62.7656C147.375 62.3963 146.728 61.853 146.253 61.1357C145.784 60.4112 145.549 59.5092 145.549 58.4297C145.549 57.5206 145.716 56.7571 146.05 56.1392C146.384 55.5213 146.838 55.0241 147.414 54.6477C147.989 54.2713 148.642 53.9872 149.374 53.7955C150.113 53.6037 150.887 53.4688 151.696 53.3906C152.648 53.2912 153.415 53.1989 153.998 53.1136C154.58 53.0213 155.003 52.8864 155.265 52.7088C155.528 52.5312 155.659 52.2685 155.659 51.9205V51.8565C155.659 51.1818 155.446 50.6598 155.02 50.2905C154.601 49.9212 154.005 49.7365 153.231 49.7365C152.414 49.7365 151.764 49.9176 151.281 50.2798C150.798 50.6349 150.478 51.0824 150.322 51.6222L146.125 51.2812C146.338 50.2869 146.757 49.4276 147.382 48.7031C148.007 47.9716 148.813 47.4105 149.8 47.0199C150.794 46.6222 151.945 46.4233 153.252 46.4233C154.161 46.4233 155.031 46.5298 155.862 46.7429C156.7 46.956 157.442 47.2862 158.088 47.7337C158.742 48.1811 159.257 48.7564 159.633 49.4595C160.01 50.1555 160.198 50.9901 160.198 51.9631V63H155.894V60.7308H155.766C155.503 61.2422 155.152 61.6932 154.711 62.0838C154.271 62.4673 153.742 62.7692 153.124 62.9893C152.506 63.2024 151.792 63.3089 150.983 63.3089ZM152.282 60.1768C152.95 60.1768 153.539 60.0455 154.051 59.7827C154.562 59.5128 154.963 59.1506 155.255 58.696C155.546 58.2415 155.691 57.7266 155.691 57.1513V55.4148C155.549 55.5071 155.354 55.5923 155.106 55.6705C154.864 55.7415 154.591 55.8089 154.285 55.8729C153.98 55.9297 153.674 55.983 153.369 56.0327C153.064 56.0753 152.787 56.1143 152.538 56.1499C152.005 56.228 151.54 56.3523 151.142 56.5227C150.745 56.6932 150.436 56.924 150.216 57.2152C149.995 57.4993 149.885 57.8544 149.885 58.2805C149.885 58.8984 150.109 59.3707 150.557 59.6974C151.011 60.017 151.586 60.1768 152.282 60.1768ZM163.719 63V46.6364H168.119V49.4915H168.289C168.587 48.4759 169.088 47.7088 169.791 47.1903C170.494 46.6648 171.304 46.402 172.22 46.402C172.447 46.402 172.693 46.4162 172.955 46.4446C173.218 46.473 173.449 46.5121 173.648 46.5618V50.5888C173.435 50.5249 173.14 50.468 172.764 50.4183C172.387 50.3686 172.043 50.3438 171.73 50.3438C171.063 50.3438 170.466 50.4893 169.94 50.7805C169.422 51.0646 169.01 51.4624 168.705 51.9737C168.406 52.4851 168.257 53.0746 168.257 53.7422V63H163.719ZM180.192 63.3089C179.148 63.3089 178.217 63.1278 177.4 62.7656C176.584 62.3963 175.937 61.853 175.462 61.1357C174.993 60.4112 174.758 59.5092 174.758 58.4297C174.758 57.5206 174.925 56.7571 175.259 56.1392C175.593 55.5213 176.047 55.0241 176.623 54.6477C177.198 54.2713 177.851 53.9872 178.583 53.7955C179.322 53.6037 180.096 53.4688 180.905 53.3906C181.857 53.2912 182.624 53.1989 183.207 53.1136C183.789 53.0213 184.212 52.8864 184.474 52.7088C184.737 52.5312 184.868 52.2685 184.868 51.9205V51.8565C184.868 51.1818 184.655 50.6598 184.229 50.2905C183.81 49.9212 183.214 49.7365 182.439 49.7365C181.623 49.7365 180.973 49.9176 180.49 50.2798C180.007 50.6349 179.687 51.0824 179.531 51.6222L175.334 51.2812C175.547 50.2869 175.966 49.4276 176.591 48.7031C177.216 47.9716 178.022 47.4105 179.009 47.0199C180.003 46.6222 181.154 46.4233 182.461 46.4233C183.37 46.4233 184.24 46.5298 185.071 46.7429C185.909 46.956 186.651 47.2862 187.297 47.7337C187.951 48.1811 188.466 48.7564 188.842 49.4595C189.219 50.1555 189.407 50.9901 189.407 51.9631V63H185.103V60.7308H184.975C184.712 61.2422 184.361 61.6932 183.92 62.0838C183.48 62.4673 182.951 62.7692 182.333 62.9893C181.715 63.2024 181.001 63.3089 180.192 63.3089ZM181.491 60.1768C182.159 60.1768 182.748 60.0455 183.26 59.7827C183.771 59.5128 184.172 59.1506 184.464 58.696C184.755 58.2415 184.9 57.7266 184.9 57.1513V55.4148C184.758 55.5071 184.563 55.5923 184.314 55.6705C184.073 55.7415 183.8 55.8089 183.494 55.8729C183.189 55.9297 182.883 55.983 182.578 56.0327C182.273 56.0753 181.996 56.1143 181.747 56.1499C181.214 56.228 180.749 56.3523 180.351 56.5227C179.954 56.6932 179.645 56.924 179.425 57.2152C179.204 57.4993 179.094 57.8544 179.094 58.2805C179.094 58.8984 179.318 59.3707 179.765 59.6974C180.22 60.017 180.795 60.1768 181.491 60.1768Z" fill="#E9967A"/>
</svg>
