<svg width="200" height="200" viewBox="0 0 200 200" fill="none" xmlns="http://www.w3.org/2000/svg">
<path d="M139.355 117.168C137.227 116.074 126.621 110.879 124.648 110.176C122.676 109.434 121.23 109.082 119.805 111.27C118.359 113.438 114.258 118.262 112.969 119.727C111.719 121.172 110.449 121.348 108.32 120.273C95.6641 113.945 87.3633 108.984 79.0234 94.668C76.8164 90.8594 81.2305 91.1328 85.3516 82.9102C86.0547 81.4648 85.7031 80.2344 85.1562 79.1406C84.6094 78.0469 80.3125 67.4609 78.5156 63.1445C76.7773 58.9453 74.9805 59.5312 73.6719 59.4531C72.4219 59.375 70.9961 59.375 69.5508 59.375C68.1055 59.375 65.7813 59.9219 63.8086 62.0508C61.8359 64.2188 56.2695 69.4336 56.2695 80.0195C56.2695 90.6055 63.9844 100.859 65.0391 102.305C66.1328 103.75 80.2148 125.469 101.836 134.824C115.508 140.723 120.859 141.23 127.695 140.215C131.855 139.59 140.43 135.02 142.207 129.961C143.984 124.922 143.984 120.605 143.457 119.707C142.93 118.75 141.484 118.203 139.355 117.168Z" fill="#A3C4FF" fill-opacity="0.5"/>
<path d="M180.703 66.0938C176.289 55.6055 169.961 46.1914 161.895 38.1055C153.828 30.0391 144.414 23.6914 133.906 19.2969C123.164 14.7852 111.758 12.5 100 12.5H99.6094C87.7734 12.5586 76.3086 14.9023 65.5274 19.5117C55.1172 23.9648 45.7813 30.293 37.793 38.3594C29.8047 46.4258 23.5352 55.8008 19.1992 66.25C14.707 77.0703 12.4414 88.5742 12.5 100.41C12.5586 113.965 15.8008 127.422 21.875 139.453V169.141C21.875 174.102 25.8984 178.125 30.8594 178.125H60.5664C72.5977 184.199 86.0547 187.441 99.6094 187.5H100.02C111.719 187.5 123.066 185.234 133.75 180.801C144.199 176.445 153.594 170.195 161.641 162.207C169.707 154.219 176.055 144.883 180.488 134.473C185.098 123.691 187.441 112.227 187.5 100.391C187.559 88.4961 185.254 76.9531 180.703 66.0938ZM151.191 151.641C137.5 165.195 119.336 172.656 100 172.656H99.668C87.8906 172.598 76.1914 169.668 65.8594 164.16L64.2188 163.281H36.7188V135.781L35.8399 134.141C30.332 123.809 27.4024 112.109 27.3438 100.332C27.2656 80.8594 34.707 62.5781 48.3594 48.8086C61.9922 35.0391 80.2149 27.4219 99.6875 27.3438H100.02C109.785 27.3438 119.258 29.2383 128.184 32.9883C136.895 36.6406 144.707 41.8945 151.426 48.6133C158.125 55.3125 163.398 63.1445 167.051 71.8555C170.84 80.8789 172.734 90.4492 172.695 100.332C172.578 119.785 164.941 138.008 151.191 151.641Z" fill="#A3C4FF" fill-opacity="0.5"/>
</svg>
