<svg width="367" height="443" viewBox="0 0 367 443" fill="none" xmlns="http://www.w3.org/2000/svg">
<path d="M145.5 384.1C138.9 384.8 133.3 385.5 127.7 386.1C98.6 389 73.2 381.1 54 358.4C48 351.3 44.6 342.1 39.5 334.2C31.6 321.8 23.5 309.5 14.8 297.6C11.8 293.5 6.60001 291.1 2.60001 287.6C1.30001 286.5 0.9 284.4 0 282.7C1.8 282 3.5 280.8 5.3 280.6C28.3 278.5 44.5 289.1 55.8 308.2C69.9 332 90.3 345 118 345C126 345 134 342.3 141.9 340.5C143.4 340.1 145.2 337.8 145.4 336.1C146.8 325.7 148.1 315.3 152.9 305.8C154.7 302.3 156.8 299 158.9 295.4C150.8 293.8 143 292.6 135.3 290.7C99.8 281.7 70.5 263.9 53.5 230.1C46.9 216.9 43.2 202.7 42.7 187.9C41.9 165.1 42.2 142.2 46.8 119.7C50.1 103.9 56.1 89.2 68.1 77.8C70.7 75.3 71.2 73.1 69.8 69.3C63.1 50.6 62.4 31.6 68.1 12.5C69.3 8.4 70.4 4.3 71.6 0C99 5.2 115.3 23.7 130.6 44.2C146.4 32.5 165.1 31.5 183.3 30.3C204.9 28.9 226.6 29.2 248.1 32.7C259.3 34.5 266.2 36.8 277.1 43.3C286.5 33.6 295.3 23.8 305 14.9C312.7 7.8 322.3 3.3 332.7 0.899998C335.6 0.199998 337.1 0.499997 338.3 3.7C346.4 25.8 347.6 47.8 338.7 69.9C337.5 72.9 337.6 75 340.1 77.4C354.5 91.1 361.1 108.8 363.3 127.9C365.3 145.6 366.4 163.4 366.4 181.2C366.4 206.5 358.9 229.7 343 249.6C331.8 263.7 317.3 273.8 300.9 281.4C285 288.7 268.4 292.9 251.2 295.1C250.8 295.2 250.4 295.5 249.7 295.8C261.5 312.7 263.4 331.7 263.2 351.4C262.9 380.1 263 408.7 263.2 437.4C263.2 441.9 261.9 443 257.5 443C222 442.8 186.5 442.8 151 443C146.6 443 145.2 441.6 145.2 437.3C145.4 421.8 145.3 406.3 145.3 390.8C145.5 388.5 145.5 386.5 145.5 384.1Z" fill="#A3C4FF" fill-opacity="0.5"/>
</svg>
