<svg width="154" height="156" viewBox="0 0 154 156" fill="none" xmlns="http://www.w3.org/2000/svg">
<g clip-path="url(#clip0_61_91)">
<path d="M76.9999 71.5C82.0763 71.5 87.0387 69.9751 91.2596 67.1182C95.4804 64.2613 98.7702 60.2007 100.713 55.4498C102.655 50.6989 103.164 45.4712 102.173 40.4277C101.183 35.3842 98.7385 30.7514 95.149 27.1152C91.5594 23.4791 86.9861 21.0028 82.0072 19.9996C77.0284 18.9964 71.8677 19.5113 67.1777 21.4791C62.4877 23.447 58.4792 26.7795 55.6589 31.0552C52.8386 35.3309 51.3333 40.3577 51.3333 45.5C51.3333 52.3956 54.0374 59.0088 58.8508 63.8848C63.6643 68.7607 70.1927 71.5 76.9999 71.5Z" fill="#AAAAAA"/>
<path d="M115.5 136.5C117.202 136.5 118.834 135.815 120.037 134.596C121.241 133.377 121.917 131.724 121.917 130C121.917 117.933 117.184 106.36 108.761 97.8266C100.337 89.2937 88.9126 84.5 76.9999 84.5C65.0873 84.5 53.6625 89.2937 45.239 97.8266C36.8155 106.36 32.0833 117.933 32.0833 130C32.0833 131.724 32.7593 133.377 33.9627 134.596C35.166 135.815 36.7981 136.5 38.4999 136.5H115.5Z" fill="#AAAAAA"/>
</g>
<defs>
<clipPath id="clip0_61_91">
<rect width="154" height="156" fill="white"/>
</clipPath>
</defs>
</svg>
