<svg width="719" height="619" viewBox="0 0 719 619" fill="none" xmlns="http://www.w3.org/2000/svg">
<g clip-path="url(#clip0_130_126)">
<path d="M588.681 537.756L525.769 429.431C542.292 429.431 558.654 426.629 573.92 421.186C589.186 415.742 603.057 407.762 614.74 397.704C626.424 387.645 635.693 375.703 642.016 362.56C648.339 349.418 651.594 335.332 651.594 321.106V185.7C651.594 171.475 648.339 157.388 642.016 144.246C635.693 131.103 626.424 119.162 614.74 109.103C603.057 99.0438 589.186 91.0646 573.92 85.6208C558.654 80.1769 542.292 77.375 525.769 77.375H148.294C114.923 77.375 82.9188 88.7878 59.322 109.103C35.7253 129.418 22.4688 156.97 22.4688 185.7V321.106C22.4688 349.836 35.7253 377.389 59.322 397.704C82.9188 418.018 114.923 429.431 148.294 429.431H337.031L588.681 537.756Z" stroke="#7B4AE2" stroke-opacity="0.5" stroke-width="50" stroke-linecap="round" stroke-linejoin="round"/>
<path d="M202.219 282.419C219.592 282.419 233.675 270.294 233.675 255.337C233.675 240.381 219.592 228.256 202.219 228.256C184.846 228.256 170.762 240.381 170.762 255.337C170.762 270.294 184.846 282.419 202.219 282.419Z" fill="#7B4AE2" fill-opacity="0.5"/>
<path d="M359.5 282.419C376.873 282.419 390.956 270.294 390.956 255.337C390.956 240.381 376.873 228.256 359.5 228.256C342.127 228.256 328.044 240.381 328.044 255.337C328.044 270.294 342.127 282.419 359.5 282.419Z" fill="#7B4AE2" fill-opacity="0.5"/>
<path d="M516.781 282.419C534.154 282.419 548.238 270.294 548.238 255.337C548.238 240.381 534.154 228.256 516.781 228.256C499.409 228.256 485.325 240.381 485.325 255.337C485.325 270.294 499.409 282.419 516.781 282.419Z" fill="#7B4AE2" fill-opacity="0.5"/>
</g>
<defs>
<clipPath id="clip0_130_126">
<rect width="719" height="619" fill="white"/>
</clipPath>
</defs>
</svg>
