<svg width="887" height="975" viewBox="0 0 887 975" fill="none" xmlns="http://www.w3.org/2000/svg">
<g clip-path="url(#clip0_130_110)">
<path d="M443.5 446.875C472.739 446.875 501.321 437.345 525.632 419.489C549.943 401.633 568.891 376.254 580.08 346.561C591.269 316.868 594.197 284.195 588.493 252.673C582.789 221.151 568.709 192.196 548.034 169.47C527.359 146.744 501.018 131.268 472.341 124.997C443.664 118.727 413.94 121.945 386.927 134.245C359.914 146.544 336.825 167.372 320.581 194.095C304.337 220.818 295.667 252.236 295.667 284.375C295.667 327.473 311.242 368.805 338.966 399.28C366.69 429.755 404.292 446.875 443.5 446.875Z" fill="#7B4AE2" fill-opacity="0.5"/>
<path d="M665.25 853.125C675.052 853.125 684.452 848.845 691.383 841.226C698.314 833.608 702.208 823.274 702.208 812.5C702.208 737.079 674.952 664.747 626.434 611.417C577.917 558.086 512.114 528.125 443.5 528.125C374.886 528.125 309.083 558.086 260.566 611.417C212.048 664.747 184.792 737.079 184.792 812.5C184.792 823.274 188.685 833.608 195.616 841.226C202.548 848.845 211.948 853.125 221.75 853.125H665.25Z" fill="#7B4AE2" fill-opacity="0.5"/>
</g>
<defs>
<clipPath id="clip0_130_110">
<rect width="887" height="975" fill="white"/>
</clipPath>
</defs>
</svg>
