<svg width="132" height="121" viewBox="0 0 132 121" fill="none" xmlns="http://www.w3.org/2000/svg">
<path d="M112.791 17.7313C100.667 6.05606 83.8906 -0.235244 66.4584 0.00672879C49.0263 -0.235244 32.315 6.05606 20.1911 17.7313C7.47748 28.9225 0.6619 44.4088 0.924038 60.5C0.6619 76.5912 7.47747 92.017 20.1256 103.208C32.2495 114.944 49.0263 121.235 66.4584 120.993C83.8906 121.235 100.602 114.944 112.726 103.269C125.439 92.0775 132.255 76.5912 131.993 60.5C132.255 44.4088 125.439 28.9225 112.791 17.7313ZM99.2256 60.5V96.796H76.2886V66.5493H56.6283V96.796H33.6912V60.5H20.5844L66.4584 18.1547L115.609 60.5H99.2256Z" fill="#AAAAAA"/>
</svg>
