<svg width="114" height="106" viewBox="0 0 114 106" fill="none" xmlns="http://www.w3.org/2000/svg">
<path d="M47.5959 63.9589V71.3296L22.7998 59.9731V53.6709L47.5959 42.3157V49.7381L30.3181 56.7714L47.5959 63.9589Z" fill="black"/>
<path d="M62.9282 42.1591L56.0255 72.1884C55.7964 73.1773 55.5958 73.9603 55.4225 74.5324C55.2503 75.1058 54.987 75.5551 54.6347 75.8719C54.2813 76.1947 53.7672 76.3537 53.0935 76.3537C51.4177 76.3537 50.5786 75.5864 50.5786 74.0627C50.5786 73.6627 50.7439 72.6654 51.0722 71.0682L57.9499 41.0388C58.3112 39.4416 58.6555 38.3479 58.9838 37.7577C59.3133 37.1674 59.954 36.8723 60.9082 36.8723C61.7301 36.8723 62.3571 37.0807 62.7926 37.4975C63.2281 37.9142 63.4458 38.4876 63.4458 39.2164C63.4458 39.7548 63.2725 40.7353 62.9282 42.1591Z" fill="black"/>
<path d="M91.1999 59.973L66.4038 71.3813V64.0107L83.7318 56.8231L66.4038 49.738V42.4192L91.1999 53.7226V59.973Z" fill="black"/>
<path d="M107.16 0H6.84C3.06318 0 0 3.23661 0 7.22727V98.7727C0 102.762 3.06318 106 6.84 106H107.16C110.938 106 114 102.762 114 98.7727V7.22727C114 3.23541 110.938 0 107.16 0ZM90.06 4.81818C92.5737 4.81818 94.62 6.97914 94.62 9.63636C94.62 12.2936 92.5737 14.4545 90.06 14.4545C87.5463 14.4545 85.5 12.2936 85.5 9.63636C85.5 6.97914 87.5463 4.81818 90.06 4.81818ZM77.52 4.81818C80.0337 4.81818 82.08 6.97914 82.08 9.63636C82.08 12.2936 80.0337 14.4545 77.52 14.4545C75.0063 14.4545 72.96 12.2936 72.96 9.63636C72.96 6.97914 75.0063 4.81818 77.52 4.81818ZM107.16 98.7727H6.84V19.2727H107.16V98.7727ZM102.6 14.4545C100.086 14.4545 98.04 12.2936 98.04 9.63636C98.04 6.97914 100.086 4.81818 102.6 4.81818C105.114 4.81818 107.16 6.97914 107.16 9.63636C107.16 12.2936 105.114 14.4545 102.6 14.4545Z" fill="black"/>
</svg>
