<svg width="258" height="246" viewBox="0 0 258 246" fill="none" xmlns="http://www.w3.org/2000/svg">
<g clip-path="url(#clip0_61_69)">
<path d="M129 15.375C191.232 15.375 241.875 63.6621 241.875 123C241.875 182.338 191.232 230.625 129 230.625C66.7676 230.625 16.125 182.338 16.125 123C16.125 63.6621 66.7676 15.375 129 15.375ZM129 0C57.7603 0 0 55.0737 0 123C0 190.926 57.7603 246 129 246C200.24 246 258 190.926 258 123C258 55.0737 200.24 0 129 0ZM200.917 164.125L200.192 162.023C198.492 157.189 192.886 152.144 187.721 150.792L168.651 145.822C163.486 144.486 156.117 146.288 152.322 149.906L145.425 156.483C120.355 150.011 100.688 131.258 93.916 107.355L100.813 100.778C104.593 97.1748 106.482 90.1479 105.081 85.2082L99.8838 67.0254C98.4824 62.1006 93.1597 56.7554 88.0894 55.1338L85.916 54.4429C80.8296 52.8213 73.5703 54.4578 69.791 58.0767L59.4609 67.9263C57.6187 69.668 56.4375 74.6677 56.4375 74.6831C56.0908 105.944 68.9409 136.048 92.1206 158.165C115.237 180.206 146.7 192.444 179.375 192.173C179.548 192.173 184.95 191.077 186.792 189.32L197.122 179.47C200.901 175.881 202.602 168.96 200.917 164.125Z" fill="#AAAAAA"/>
</g>
<defs>
<clipPath id="clip0_61_69">
<rect width="258" height="246" fill="white"/>
</clipPath>
</defs>
</svg>
