<svg width="507" height="505" viewBox="0 0 507 505" fill="none" xmlns="http://www.w3.org/2000/svg">
<path d="M170.9 503.931C170.9 501.531 170.9 499.231 170.9 496.931C170.9 389.231 170.9 281.631 170.9 173.931C170.9 170.931 170.7 168.531 175.1 168.531C206.9 168.731 238.8 168.631 270.6 168.631C271.4 168.631 272.2 168.831 273.5 169.031C273.5 183.031 273.5 196.831 273.5 210.731C273.9 210.831 274.2 211.031 274.6 211.131C278.6 205.931 282.4 200.531 286.6 195.431C298.8 180.431 314.1 169.431 332.1 162.831C341.9 159.231 352.6 157.031 362.9 156.531C377.1 155.931 391.6 156.131 405.6 158.531C428.6 162.431 448.9 172.631 465.7 189.331C481.6 205.031 492.1 223.931 497.8 245.231C500.8 256.531 502.7 268.131 504.5 279.631C505.7 287.631 506.3 295.831 506.3 303.831C506.4 368.831 506.4 433.831 506.4 498.831C506.4 500.431 506.3 502.031 506.2 504.131C504.3 504.131 502.7 504.131 501.1 504.131C470.4 504.131 439.8 504.031 409.1 504.231C404 504.231 403.1 502.531 403.1 497.931C403.2 438.131 403.4 378.231 403 318.431C402.9 307.931 401.9 297.031 399.2 286.931C394.3 269.231 383.1 256.431 365.3 249.931C350.3 244.431 335.1 243.431 319.7 247.331C302.7 251.631 291 262.931 282.2 277.831C275.4 289.331 274.1 302.031 274 314.731C273.6 375.431 273.8 436.031 273.8 496.731C273.8 499.031 273.8 501.331 273.8 503.831C239.3 503.931 205.4 503.931 170.9 503.931Z" fill="#A3C4FF" fill-opacity="0.5"/>
<path d="M106.5 337.831C106.5 391.131 106.4 444.431 106.6 497.731C106.6 502.531 105.6 504.331 100.3 504.231C69.8002 503.931 39.3002 503.931 8.80019 504.231C3.80019 504.231 2.7002 502.531 2.7002 497.931C2.8002 390.831 2.8002 283.631 2.7002 176.531C2.7002 172.231 3.90019 170.731 8.30019 170.731C39.1002 170.931 69.9002 170.931 100.8 170.731C105.6 170.731 106.5 172.531 106.5 176.831C106.5 230.531 106.5 284.231 106.5 337.831Z" fill="#A3C4FF" fill-opacity="0.5"/>
<path d="M53.5003 0.0307748C86.4003 -0.769225 106.1 23.1308 106.2 52.4308C106.3 82.4308 85.3003 104.831 52.3003 104.731C21.6003 104.731 -0.0996558 82.7308 0.000344191 51.6308C0.100344 22.5308 21.2003 -0.969225 53.5003 0.0307748Z" fill="#A3C4FF" fill-opacity="0.5"/>
</svg>
